<svg width="1280" height="634" viewBox="0 0 1280 634" fill="none" xmlns="http://www.w3.org/2000/svg">
<rect y="74" width="1280" height="560" fill="#073042"/>
<rect width="1280" height="74" fill="#073042"/>
<rect x="1134" y="21" width="76" height="32" rx="3" fill="#2BE080"/>
<path opacity="0.7" fill-rule="evenodd" clip-rule="evenodd" d="M706.691 552.15C700.062 556.463 693.382 560.118 686.755 563.07C660.576 574.731 635.566 575.309 617.528 562.832C613.408 559.982 609.8 556.554 606.709 552.621C625.825 539.818 644.399 521.651 660.05 499.181C697.688 445.144 706.024 384.022 682.764 351.881C689.409 347.554 696.105 343.889 702.748 340.93C728.927 329.269 753.937 328.691 771.975 341.168C776.085 344.01 779.684 347.428 782.77 351.348C763.637 364.153 745.046 382.331 729.382 404.819C691.732 458.873 683.403 520.017 706.691 552.15ZM681.561 350.281C714.8 328.601 749.468 323.168 773.118 339.527C777.452 342.524 781.227 346.123 784.448 350.239C817.657 328.594 852.284 323.179 875.912 339.527C880.258 342.534 884.043 346.147 887.27 350.281C920.51 328.601 955.177 323.168 978.828 339.527C983.161 342.524 986.936 346.123 990.158 350.239C1023.37 328.594 1057.99 323.179 1081.62 339.527C1085.97 342.534 1089.75 346.147 1092.98 350.281C1126.22 328.601 1160.89 323.168 1184.54 339.527C1200.78 350.764 1209.18 370.45 1210 394.19H1208C1207.18 370.898 1198.94 351.921 1183.39 341.168C1165.36 328.691 1140.35 329.269 1114.17 340.93C1107.52 343.889 1100.83 347.554 1094.18 351.881C1117.44 384.022 1109.11 445.144 1071.47 499.181C1055.82 521.651 1037.24 539.818 1018.13 552.621C1021.22 556.554 1024.83 559.982 1028.95 562.832C1046.98 575.309 1072 574.731 1098.17 563.07C1109.61 557.976 1121.2 550.791 1132.42 541.74V544.299C1095.46 573.586 1054.58 582.991 1027.8 564.473C1023.46 561.468 1019.68 557.859 1016.45 553.731C983.227 575.401 948.579 580.829 924.94 564.473C920.604 561.473 916.828 557.871 913.605 553.75C880.38 575.404 845.734 580.824 822.094 564.473C817.75 561.468 813.967 557.859 810.74 553.73C777.517 575.401 742.869 580.829 719.231 564.473C714.895 561.473 711.118 557.871 707.896 553.75C674.67 575.404 640.024 580.824 616.385 564.473C612.04 561.468 608.258 557.859 605.031 553.73C571.808 575.401 537.16 580.829 513.521 564.473C475.862 538.416 480.407 466.936 523.673 404.819C566.939 342.702 632.542 313.469 670.202 339.527C674.549 342.534 678.333 346.147 681.561 350.281ZM603.827 552.13C597.19 556.452 590.503 560.113 583.868 563.069C557.698 574.731 532.696 575.309 514.664 562.832C496.632 550.356 488.436 526.807 490.249 498.293C492.059 469.822 503.858 436.767 525.318 405.957C546.778 375.147 573.725 352.574 599.856 340.931C626.026 329.269 651.027 328.691 669.059 341.168C673.182 344.021 676.791 347.452 679.883 351.39C660.766 364.192 642.192 382.355 626.54 404.819C588.885 458.862 580.549 519.992 603.827 552.13ZM605.502 551.025C595.916 537.833 591.76 519.427 593.104 498.293C594.915 469.822 606.718 436.767 628.185 405.957C643.738 383.635 662.172 365.637 681.089 352.986C690.666 366.178 694.818 384.579 693.474 405.707C691.664 434.178 679.866 467.233 658.406 498.043C642.853 520.371 624.419 538.374 605.502 551.025ZM708.367 551.045C698.774 537.852 694.614 519.438 695.958 498.293C697.769 469.822 709.567 436.767 731.027 405.957C746.592 383.61 765.045 365.596 783.978 352.943C791.792 363.68 796.005 377.877 796.578 394.19H798.581C798.007 377.59 793.729 362.972 785.654 351.839C792.275 347.53 798.946 343.88 805.565 340.931C831.735 329.269 856.737 328.691 874.768 341.168C878.891 344.021 882.5 347.452 885.593 351.39C866.475 364.192 847.901 382.355 832.249 404.819C794.594 458.862 786.258 519.992 809.536 552.13C802.899 556.452 796.212 560.113 789.577 563.069C763.407 574.731 738.406 575.309 720.374 562.832C716.262 559.987 712.661 556.566 709.574 552.641C713.411 550.074 717.226 547.29 721 544.299V541.74C716.831 545.103 712.611 548.209 708.367 551.045ZM1002.29 394.19C1001.71 377.877 997.501 363.68 989.688 352.943C970.754 365.596 952.302 383.61 936.737 405.957C915.277 436.767 903.478 469.822 901.668 498.293C900.323 519.438 904.483 537.852 914.076 551.045C918.321 548.209 922.541 545.103 926.71 541.74V544.299C922.936 547.29 919.12 550.074 915.283 552.641C918.37 556.566 921.971 559.987 926.083 562.832C944.115 575.309 969.116 574.731 995.287 563.069C1001.92 560.113 1008.61 556.452 1015.25 552.13C991.968 519.992 1000.3 458.862 1037.96 404.819C1053.61 382.355 1072.18 364.192 1091.3 351.389C1088.21 347.452 1084.6 344.021 1080.48 341.168C1062.45 328.691 1037.44 329.269 1011.27 340.931C1004.66 343.88 997.984 347.53 991.363 351.838C999.439 362.972 1003.72 377.59 1004.29 394.19H1002.29ZM977.685 341.168C981.794 344.01 985.393 347.428 988.48 351.348C969.347 364.153 950.755 382.331 935.092 404.819C897.442 458.873 889.113 520.017 912.401 552.15C905.771 556.463 899.092 560.118 892.465 563.07C866.286 574.731 841.276 575.309 823.238 562.832C819.117 559.982 815.51 556.554 812.418 552.621C831.535 539.818 850.109 521.651 865.76 499.181C903.398 445.144 911.733 384.022 888.473 351.881C895.118 347.554 901.814 343.889 908.457 340.93C934.636 329.269 959.646 328.691 977.685 341.168ZM1069.82 498.043C1054.27 520.371 1035.84 538.374 1016.92 551.025C1007.33 537.833 1003.18 519.427 1004.52 498.293C1006.33 469.822 1018.14 436.767 1039.6 405.957C1055.16 383.635 1073.59 365.637 1092.51 352.986C1102.08 366.178 1106.24 384.579 1104.89 405.707C1103.08 434.178 1091.28 467.233 1069.82 498.043ZM811.212 551.025C830.128 538.374 848.563 520.371 864.115 498.043C885.575 467.233 897.374 434.178 899.184 405.707C900.527 384.579 896.375 366.178 886.798 352.986C867.881 365.637 849.447 383.635 833.894 405.957C812.427 436.767 800.625 469.822 798.814 498.293C797.469 519.427 801.626 537.833 811.212 551.025Z" fill="white"/>
<path d="M1154.96 41H1158.3C1160.33 41 1161.25 39.9901 1161.25 38.652C1161.25 37.3011 1160.3 36.5384 1159.44 36.4915V36.4062C1160.24 36.2017 1160.91 35.6562 1160.91 34.5653C1160.91 33.2741 1160.01 32.2727 1158.15 32.2727H1154.96V41ZM1156.28 39.8707V37.0753H1158.22C1159.28 37.0753 1159.94 37.7571 1159.94 38.5881C1159.94 39.321 1159.44 39.8707 1158.18 39.8707H1156.28ZM1156.28 36.0483V33.3935H1158.07C1159.12 33.3935 1159.62 33.9432 1159.62 34.6676C1159.62 35.5114 1158.93 36.0483 1158.04 36.0483H1156.28ZM1165.47 41.1321C1167.31 41.1321 1168.52 39.7812 1168.52 37.7571C1168.52 35.7202 1167.31 34.3693 1165.47 34.3693C1163.62 34.3693 1162.41 35.7202 1162.41 37.7571C1162.41 39.7812 1163.62 41.1321 1165.47 41.1321ZM1165.47 40.0625C1164.26 40.0625 1163.7 39.0099 1163.7 37.7528C1163.7 36.5 1164.26 35.4347 1165.47 35.4347C1166.67 35.4347 1167.23 36.5 1167.23 37.7528C1167.23 39.0099 1166.67 40.0625 1165.47 40.0625ZM1171.19 39.2145V34.4545H1169.94V41H1171.32L1174.2 36.2358V41H1175.44V34.4545H1174.07L1171.19 39.2145ZM1173.53 32.2386C1173.53 32.669 1173.29 33.0483 1172.69 33.0483C1172.09 33.0483 1171.86 32.6648 1171.86 32.2386H1170.82C1170.82 33.1974 1171.55 33.858 1172.69 33.858C1173.85 33.858 1174.57 33.1974 1174.57 32.2386H1173.53ZM1176.35 35.554H1178.49V41H1179.73V35.554H1181.87V34.4545H1176.35V35.554ZM1184.46 39.2145V34.4545H1183.22V41H1184.6L1187.47 36.2358V41H1188.72V34.4545H1187.35L1184.46 39.2145Z" fill="black"/>
<path d="M1028.2 41H1029.52V37.9318H1031.31C1033.33 37.9318 1034.33 36.7088 1034.33 35.098C1034.33 33.4915 1033.34 32.2727 1031.31 32.2727H1028.2V41ZM1029.52 36.8153V33.402H1031.17C1032.48 33.402 1033.01 34.1094 1033.01 35.098C1033.01 36.0866 1032.48 36.8153 1031.19 36.8153H1029.52ZM1038.51 41.1321C1039.94 41.1321 1040.95 40.429 1041.24 39.3636L1040.03 39.1463C1039.8 39.7642 1039.25 40.0795 1038.53 40.0795C1037.44 40.0795 1036.7 39.3722 1036.67 38.1108H1041.32V37.6591C1041.32 35.294 1039.91 34.3693 1038.42 34.3693C1036.6 34.3693 1035.4 35.7585 1035.4 37.7699C1035.4 39.8026 1036.58 41.1321 1038.51 41.1321ZM1036.67 37.1562C1036.72 36.2273 1037.4 35.4219 1038.43 35.4219C1039.42 35.4219 1040.07 36.1548 1040.07 37.1562H1036.67ZM1046.92 34.4545H1042.74V41H1043.99V35.554H1046.92V34.4545ZM1049.52 39.2145V34.4545H1048.27V41H1049.65L1052.52 36.2358V41H1053.77V34.4545H1052.4L1049.52 39.2145ZM1058.24 41.1321C1059.79 41.1321 1060.79 40.2031 1060.93 38.929H1059.69C1059.53 39.6364 1058.98 40.054 1058.25 40.054C1057.17 40.054 1056.48 39.1548 1056.48 37.7273C1056.48 36.3253 1057.19 35.4432 1058.25 35.4432C1059.06 35.4432 1059.56 35.9545 1059.69 36.5682H1060.93C1060.8 35.2472 1059.72 34.3693 1058.23 34.3693C1056.38 34.3693 1055.19 35.7585 1055.19 37.7571C1055.19 39.7301 1056.34 41.1321 1058.24 41.1321ZM1061.8 35.554H1063.94V41H1065.19V35.554H1067.32V34.4545H1061.8V35.554ZM1068.67 43.4545H1069.94V39.9815H1070.02C1070.25 40.3991 1070.72 41.1278 1071.91 41.1278C1073.5 41.1278 1074.65 39.858 1074.65 37.7401C1074.65 35.6179 1073.48 34.3693 1071.9 34.3693C1070.68 34.3693 1070.25 35.1108 1070.02 35.5156H1069.91V34.4545H1068.67V43.4545ZM1069.92 37.7273C1069.92 36.3594 1070.51 35.4517 1071.63 35.4517C1072.78 35.4517 1073.36 36.4276 1073.36 37.7273C1073.36 39.0398 1072.76 40.0412 1071.63 40.0412C1070.53 40.0412 1069.92 39.1037 1069.92 37.7273ZM1077.98 41.1449C1079.06 41.1449 1079.67 40.5952 1079.91 40.1051H1079.97V41H1081.21V36.6534C1081.21 34.7486 1079.71 34.3693 1078.67 34.3693C1077.49 34.3693 1076.39 34.8466 1075.97 36.0398L1077.17 36.3125C1077.35 35.848 1077.83 35.4006 1078.69 35.4006C1079.51 35.4006 1079.93 35.831 1079.93 36.5724V36.6023C1079.93 37.0668 1079.45 37.0582 1078.28 37.1946C1077.04 37.3395 1075.77 37.6634 1075.77 39.1506C1075.77 40.4375 1076.74 41.1449 1077.98 41.1449ZM1078.26 40.1222C1077.54 40.1222 1077.02 39.7983 1077.02 39.1676C1077.02 38.4858 1077.62 38.2429 1078.36 38.1449C1078.77 38.0895 1079.75 37.9787 1079.94 37.7955V38.6392C1079.94 39.4148 1079.32 40.1222 1078.26 40.1222ZM1088.24 34.4545H1087V39.9006H1084.15V34.4545H1082.9V41H1088.24V43.1094H1089.5V39.956H1088.24V34.4545ZM1092.09 39.2145V34.4545H1090.84V41H1092.23L1095.1 36.2358V41H1096.35V34.4545H1094.97L1092.09 39.2145ZM1101.96 41H1103.16V34.4545H1100.39C1098.89 34.4545 1097.97 35.2344 1097.97 36.4659C1097.97 37.3267 1098.42 37.9616 1099.2 38.2557L1097.67 41H1098.97L1100.4 38.4389H1101.96V41ZM1101.96 37.4077H1100.31C1099.62 37.4077 1099.21 37.0412 1099.21 36.483C1099.21 35.9205 1099.65 35.5412 1100.39 35.5412H1101.96V37.4077Z" fill="white"/>
<path d="M75.0568 165.398H76.9318C81.3636 165.398 82.6705 163.011 83.8636 160.284L93.9205 135.909H90.1705L82.8409 153.977L74.8295 135.909H71.0227L81.0795 158.182L80.625 159.261C80 160.682 78.9773 162.102 76.875 162.102H75.0568V165.398ZM110.396 143.182H107.043V154.247C105.424 154.716 103.762 155 101.759 155C99.0321 155 96.9298 153.466 96.9298 150.114V143.125H93.5776V150.114C93.5776 155.455 96.8162 158.125 101.759 158.125C103.819 158.125 105.467 157.855 107.043 157.386V165H110.396V143.182ZM124.094 165.455C128.526 165.455 131.764 163.239 132.787 159.943L129.549 159.034C128.696 161.307 126.722 162.443 124.094 162.443C120.159 162.443 117.446 159.901 117.29 155.227H133.128V153.807C133.128 145.682 128.299 142.898 123.753 142.898C117.844 142.898 113.924 147.557 113.924 154.261C113.924 160.966 117.787 165.455 124.094 165.455ZM117.29 152.33C117.517 148.935 119.918 145.909 123.753 145.909C127.389 145.909 129.719 148.636 129.719 152.33H117.29ZM152.821 135C151.755 135.895 150.164 135.895 147.934 135.881C147.21 135.881 146.414 135.881 145.548 135.909C138.9 136.08 135.605 141.136 135.605 150.852V153.182C135.605 161.25 139.525 165.455 145.378 165.455C151.216 165.455 155.093 161.222 155.093 154.375C155.093 147.5 151.159 143.864 146.059 143.864C143.062 143.864 140.264 145.114 138.787 147.841H138.503C138.957 142.216 141.059 139.205 145.605 139.034C149.639 138.864 152.537 138.977 154.525 137.045L152.821 135ZM145.378 162.443C141.4 162.443 138.957 159.261 138.957 154.375C139.028 149.602 141.429 146.875 145.321 146.875C149.312 146.875 151.741 149.602 151.741 154.375C151.741 159.29 149.326 162.443 145.378 162.443ZM161.974 143.182H158.621V165H161.974V155.682H172.428V165H175.78V143.182H172.428V152.557H161.974V143.182ZM183.655 151.08V143.182H180.303V165H189.45C194.564 165 197.348 161.875 197.348 157.955C197.348 153.977 194.564 151.08 189.45 151.08H183.655ZM200.814 165H204.166V143.182H200.814V165ZM183.655 154.205H189.45C192.107 154.205 193.996 155.824 193.996 158.125C193.996 160.327 192.107 161.875 189.45 161.875H183.655V154.205ZM212.055 160.057V143.182H208.703V165H212.623L223.078 148.125V165H226.43V143.182H222.566L212.055 160.057ZM220.35 135.909C220.35 137.386 219.555 138.693 217.566 138.693C215.578 138.693 214.839 137.386 214.839 135.909H211.714C211.714 138.977 213.987 141.136 217.566 141.136C221.203 141.136 223.475 138.977 223.475 135.909H220.35ZM240.62 165H243.972V146.307H254.427V165H257.779V143.182H240.62V165ZM262.301 173.182H265.653V161.648H265.937C266.676 162.841 268.096 165.455 272.301 165.455C277.756 165.455 281.562 161.08 281.562 154.148C281.562 147.273 277.756 142.898 272.244 142.898C267.983 142.898 266.676 145.511 265.937 146.648H265.54V143.182H262.301V173.182ZM265.596 154.091C265.596 149.205 267.756 145.909 271.846 145.909C276.108 145.909 278.21 149.489 278.21 154.091C278.21 158.75 276.051 162.443 271.846 162.443C267.812 162.443 265.596 159.034 265.596 154.091ZM293.94 165.455C299.849 165.455 303.826 160.966 303.826 154.205C303.826 147.386 299.849 142.898 293.94 142.898C288.031 142.898 284.053 147.386 284.053 154.205C284.053 160.966 288.031 165.455 293.94 165.455ZM293.94 162.443C289.451 162.443 287.406 158.58 287.406 154.205C287.406 149.83 289.451 145.909 293.94 145.909C298.428 145.909 300.474 149.83 300.474 154.205C300.474 158.58 298.428 162.443 293.94 162.443ZM316.491 165.455C320.923 165.455 324.161 163.239 325.184 159.943L321.945 159.034C321.093 161.307 319.119 162.443 316.491 162.443C312.556 162.443 309.843 159.901 309.687 155.227H325.525V153.807C325.525 145.682 320.695 142.898 316.15 142.898C310.241 142.898 306.32 147.557 306.32 154.261C306.32 160.966 310.184 165.455 316.491 165.455ZM309.687 152.33C309.914 148.935 312.315 145.909 316.15 145.909C319.786 145.909 322.116 148.636 322.116 152.33H309.687ZM329.024 165H332.377V155.795H335.388L342.547 165H346.865L337.945 153.693L346.752 143.182H342.434L334.593 152.67H332.377V143.182H329.024V165ZM347.659 146.307H354.875V165H358.227V146.307H365.386V143.182H347.659V146.307ZM387.19 165.455C392.019 165.455 395.201 162.5 395.769 158.636H392.417C391.792 161.023 389.803 162.443 387.19 162.443C383.212 162.443 380.656 159.148 380.656 154.091C380.656 149.148 383.269 145.909 387.19 145.909C390.144 145.909 391.906 147.727 392.417 149.716H395.769C395.201 145.625 391.735 142.898 387.133 142.898C381.224 142.898 377.303 147.557 377.303 154.205C377.303 160.739 381.053 165.455 387.19 165.455ZM397.351 146.307H404.567V165H407.919V146.307H415.078V143.182H397.351V146.307ZM420.527 173.125C423.553 173.125 425.698 171.52 426.948 168.182L436.237 143.239L432.573 143.182L426.55 160.568H426.323L420.3 143.182H416.664L424.732 165.114L424.107 166.818C422.914 170.085 421.38 170.398 418.936 169.773L418.084 172.727C418.425 172.898 419.391 173.125 420.527 173.125ZM434.907 171.25H438.26V165H454.396V171.25H457.748V161.875H454.396V143.182H440.532L439.794 151.818C439.268 157.926 438.487 160.028 436.726 161.875H434.907V171.25ZM440.532 161.875C442.066 159.858 442.62 156.378 443.089 151.818L443.657 146.307H451.044V161.875H440.532ZM469.746 165.455C474.177 165.455 477.416 163.239 478.439 159.943L475.2 159.034C474.348 161.307 472.373 162.443 469.746 162.443C465.811 162.443 463.098 159.901 462.942 155.227H478.78V153.807C478.78 145.682 473.95 142.898 469.405 142.898C463.496 142.898 459.575 147.557 459.575 154.261C459.575 160.966 463.439 165.455 469.746 165.455ZM462.942 152.33C463.169 148.935 465.569 145.909 469.405 145.909C473.041 145.909 475.371 148.636 475.371 152.33H462.942ZM485.631 143.182H482.279V165H485.631V155.682H496.086V165H499.438V143.182H496.086V152.557H485.631V143.182ZM500.992 146.307H508.208V165H511.56V146.307H518.719V143.182H500.992V146.307ZM527.296 165.511C531.103 165.511 533.092 163.466 533.774 162.045H533.944V165H537.296V150.625C537.296 143.693 532.012 142.898 529.228 142.898C525.933 142.898 522.183 144.034 520.478 148.011L523.66 149.148C524.399 147.557 526.146 145.852 529.342 145.852C532.424 145.852 533.944 147.486 533.944 150.284V150.398C533.944 152.017 532.296 151.875 528.319 152.386C524.271 152.912 519.853 153.807 519.853 158.807C519.853 163.068 523.149 165.511 527.296 165.511ZM527.808 162.5C525.137 162.5 523.206 161.307 523.206 158.977C523.206 156.42 525.535 155.625 528.149 155.284C529.569 155.114 533.376 154.716 533.944 154.034V157.102C533.944 159.83 531.785 162.5 527.808 162.5ZM81.9318 224.443H85.2841V217.455C91.1932 217.455 95.1705 212.966 95.1705 206.205C95.1705 199.386 91.1932 194.898 85.2841 194.898V187.909H81.9318V194.898C76.0227 194.898 72.0455 199.386 72.0455 206.205C72.0455 212.966 76.0227 217.455 81.9318 217.455V224.443ZM85.2841 214.443V197.909C89.7727 197.909 91.8182 201.83 91.8182 206.205C91.8182 210.58 89.7727 214.443 85.2841 214.443ZM81.9318 214.443C77.4432 214.443 75.3977 210.58 75.3977 206.205C75.3977 201.83 77.4432 197.909 81.9318 197.909V214.443ZM105.115 217.511C108.922 217.511 110.911 215.466 111.592 214.045H111.763V217H115.115V202.625C115.115 195.693 109.831 194.898 107.047 194.898C103.752 194.898 100.002 196.034 98.297 200.011L101.479 201.148C102.217 199.557 103.965 197.852 107.161 197.852C110.243 197.852 111.763 199.486 111.763 202.284V202.398C111.763 204.017 110.115 203.875 106.138 204.386C102.09 204.912 97.672 205.807 97.672 210.807C97.672 215.068 100.967 217.511 105.115 217.511ZM105.627 214.5C102.956 214.5 101.024 213.307 101.024 210.977C101.024 208.42 103.354 207.625 105.967 207.284C107.388 207.114 111.195 206.716 111.763 206.034V209.102C111.763 211.83 109.604 214.5 105.627 214.5ZM119.634 217H122.986V207.795H125.997L133.157 217H137.475L128.554 205.693L137.361 195.182H133.043L125.202 204.67H122.986V195.182H119.634V217ZM141.677 225.125C144.703 225.125 146.848 223.52 148.098 220.182L157.387 195.239L153.723 195.182L147.7 212.568H147.473L141.45 195.182H137.814L145.882 217.114L145.257 218.818C144.064 222.085 142.53 222.398 140.086 221.773L139.234 224.727C139.575 224.898 140.541 225.125 141.677 225.125ZM156.455 217H157.591C162.421 217 163.813 213.25 164.126 206.091L164.466 198.307H172.478V217H175.83V195.182H161.285L160.887 204.841C160.603 212.17 159.864 213.875 157.251 213.875H156.455V217ZM183.733 203.08V195.182H180.381V217H189.528C194.642 217 197.426 213.875 197.426 209.955C197.426 205.977 194.642 203.08 189.528 203.08H183.733ZM183.733 206.205H189.528C192.185 206.205 194.074 207.824 194.074 210.125C194.074 212.327 192.185 213.875 189.528 213.875H183.733V206.205ZM197.413 198.307H204.629V217H207.982V198.307H215.141V195.182H197.413V198.307ZM226.446 217.455C230.877 217.455 234.116 215.239 235.139 211.943L231.9 211.034C231.048 213.307 229.073 214.443 226.446 214.443C222.511 214.443 219.798 211.901 219.642 207.227H235.48V205.807C235.48 197.682 230.65 194.898 226.105 194.898C220.196 194.898 216.275 199.557 216.275 206.261C216.275 212.966 220.139 217.455 226.446 217.455ZM219.642 204.33C219.869 200.935 222.269 197.909 226.105 197.909C229.741 197.909 232.071 200.636 232.071 204.33H219.642ZM236.948 198.307H244.164V217H247.516V198.307H254.675V195.182H236.948V198.307ZM263.253 217.511C267.06 217.511 269.048 215.466 269.73 214.045H269.9V217H273.253V202.625C273.253 195.693 267.969 194.898 265.185 194.898C261.889 194.898 258.139 196.034 256.435 200.011L259.616 201.148C260.355 199.557 262.102 197.852 265.298 197.852C268.381 197.852 269.9 199.486 269.9 202.284V202.398C269.9 204.017 268.253 203.875 264.275 204.386C260.227 204.912 255.81 205.807 255.81 210.807C255.81 215.068 259.105 217.511 263.253 217.511ZM263.764 214.5C261.094 214.5 259.162 213.307 259.162 210.977C259.162 208.42 261.491 207.625 264.105 207.284C265.525 207.114 269.332 206.716 269.9 206.034V209.102C269.9 211.83 267.741 214.5 263.764 214.5ZM287.876 217H298.387C305.262 217 308.103 213.648 308.103 209.273C308.103 204.67 304.921 202.17 302.251 202V201.716C304.751 201.034 306.967 199.386 306.967 195.636C306.967 191.375 304.126 187.909 298.046 187.909H287.876V217ZM291.399 213.875V203.761H298.558C302.364 203.761 304.751 206.318 304.751 209.273C304.751 211.83 302.989 213.875 298.387 213.875H291.399ZM291.399 200.693V191.034H298.046C301.91 191.034 303.614 193.08 303.614 195.636C303.614 198.705 301.114 200.693 297.933 200.693H291.399ZM320.985 217.455C325.416 217.455 328.655 215.239 329.678 211.943L326.439 211.034C325.587 213.307 323.613 214.443 320.985 214.443C317.05 214.443 314.337 211.901 314.181 207.227H330.019V205.807C330.019 197.682 325.189 194.898 320.644 194.898C314.735 194.898 310.814 199.557 310.814 206.261C310.814 212.966 314.678 217.455 320.985 217.455ZM314.181 204.33C314.408 200.935 316.809 197.909 320.644 197.909C324.28 197.909 326.61 200.636 326.61 204.33H314.181ZM349.711 187C348.646 187.895 347.055 187.895 344.825 187.881C344.101 187.881 343.305 187.881 342.439 187.909C335.791 188.08 332.495 193.136 332.495 202.852V205.182C332.495 213.25 336.416 217.455 342.268 217.455C348.106 217.455 351.984 213.222 351.984 206.375C351.984 199.5 348.049 195.864 342.95 195.864C339.953 195.864 337.155 197.114 335.677 199.841H335.393C335.848 194.216 337.95 191.205 342.495 191.034C346.53 190.864 349.427 190.977 351.416 189.045L349.711 187ZM342.268 214.443C338.291 214.443 335.848 211.261 335.848 206.375C335.919 201.602 338.319 198.875 342.211 198.875C346.203 198.875 348.632 201.602 348.632 206.375C348.632 211.29 346.217 214.443 342.268 214.443ZM368.012 202.966H355.285V206.091H368.012V202.966ZM372.31 225.182H375.663V213.648H375.947C376.685 214.841 378.106 217.455 382.31 217.455C387.765 217.455 391.572 213.08 391.572 206.148C391.572 199.273 387.765 194.898 382.254 194.898C377.992 194.898 376.685 197.511 375.947 198.648H375.549V195.182H372.31V225.182ZM375.606 206.091C375.606 201.205 377.765 197.909 381.856 197.909C386.117 197.909 388.219 201.489 388.219 206.091C388.219 210.75 386.06 214.443 381.856 214.443C377.822 214.443 375.606 211.034 375.606 206.091ZM401.506 217.511C405.313 217.511 407.301 215.466 407.983 214.045H408.154V217H411.506V202.625C411.506 195.693 406.222 194.898 403.438 194.898C400.142 194.898 396.392 196.034 394.688 200.011L397.869 201.148C398.608 199.557 400.355 197.852 403.551 197.852C406.634 197.852 408.154 199.486 408.154 202.284V202.398C408.154 204.017 406.506 203.875 402.529 204.386C398.48 204.912 394.063 205.807 394.063 210.807C394.063 215.068 397.358 217.511 401.506 217.511ZM402.017 214.5C399.347 214.5 397.415 213.307 397.415 210.977C397.415 208.42 399.744 207.625 402.358 207.284C403.779 207.114 407.585 206.716 408.154 206.034V209.102C408.154 211.83 405.994 214.5 402.017 214.5ZM414.661 211.432C414.774 215.011 418.198 217.455 422.843 217.455C427.615 217.455 431.081 214.898 431.081 210.92C431.081 208.193 429.448 205.977 426.99 205.807V205.58C429.064 204.94 430.627 203.435 430.627 200.977C430.627 197.526 427.672 194.898 423.07 194.898C418.524 194.898 415.286 197.398 415.172 200.92H418.695C418.794 199.116 420.684 197.852 423.24 197.852C425.783 197.852 427.218 199.145 427.218 201.091C427.218 202.909 425.968 204.273 423.297 204.273H419.547V207.284H423.297C425.968 207.284 427.672 208.747 427.672 210.92C427.672 213.406 425.47 214.443 422.786 214.443C420.158 214.443 418.397 213.406 418.24 211.432H414.661ZM434.19 225.182H437.542V213.648H437.826C438.565 214.841 439.986 217.455 444.19 217.455C449.645 217.455 453.451 213.08 453.451 206.148C453.451 199.273 449.645 194.898 444.133 194.898C439.872 194.898 438.565 197.511 437.826 198.648H437.429V195.182H434.19V225.182ZM437.486 206.091C437.486 201.205 439.645 197.909 443.736 197.909C447.997 197.909 450.099 201.489 450.099 206.091C450.099 210.75 447.94 214.443 443.736 214.443C439.701 214.443 437.486 211.034 437.486 206.091ZM463.386 217.511C467.192 217.511 469.181 215.466 469.863 214.045H470.033V217H473.386V202.625C473.386 195.693 468.101 194.898 465.317 194.898C462.022 194.898 458.272 196.034 456.567 200.011L459.749 201.148C460.488 199.557 462.235 197.852 465.431 197.852C468.513 197.852 470.033 199.486 470.033 202.284V202.398C470.033 204.017 468.386 203.875 464.408 204.386C460.36 204.912 455.942 205.807 455.942 210.807C455.942 215.068 459.238 217.511 463.386 217.511ZM463.897 214.5C461.226 214.5 459.295 213.307 459.295 210.977C459.295 208.42 461.624 207.625 464.238 207.284C465.658 207.114 469.465 206.716 470.033 206.034V209.102C470.033 211.83 467.874 214.5 463.897 214.5ZM494.097 187C493.032 187.895 491.441 187.895 489.211 187.881C488.487 187.881 487.691 187.881 486.825 187.909C480.177 188.08 476.881 193.136 476.881 202.852V205.182C476.881 213.25 480.802 217.455 486.654 217.455C492.492 217.455 496.37 213.222 496.37 206.375C496.37 199.5 492.435 195.864 487.336 195.864C484.339 195.864 481.54 197.114 480.063 199.841H479.779C480.234 194.216 482.336 191.205 486.881 191.034C490.915 190.864 493.813 190.977 495.802 189.045L494.097 187ZM486.654 214.443C482.677 214.443 480.234 211.261 480.234 206.375C480.305 201.602 482.705 198.875 486.597 198.875C490.589 198.875 493.018 201.602 493.018 206.375C493.018 211.29 490.603 214.443 486.654 214.443ZM508.762 217.455C514.671 217.455 518.648 212.966 518.648 206.205C518.648 199.386 514.671 194.898 508.762 194.898C502.852 194.898 498.875 199.386 498.875 206.205C498.875 212.966 502.852 217.455 508.762 217.455ZM508.762 214.443C504.273 214.443 502.227 210.58 502.227 206.205C502.227 201.83 504.273 197.909 508.762 197.909C513.25 197.909 515.296 201.83 515.296 206.205C515.296 210.58 513.25 214.443 508.762 214.443ZM519.313 198.307H526.529V217H529.882V198.307H537.041V195.182H519.313V198.307ZM540.331 217H543.683V207.795H546.694L553.853 217H558.172L549.251 205.693L558.058 195.182H553.74L545.899 204.67H543.683V195.182H540.331V217ZM563.567 212.057V195.182H560.215V217H564.136L574.59 200.125V217H577.942V195.182H574.079L563.567 212.057ZM584.925 217.227C586.332 217.227 587.482 216.077 587.482 214.67C587.482 213.264 586.332 212.114 584.925 212.114C583.519 212.114 582.369 213.264 582.369 214.67C582.369 216.077 583.519 217.227 584.925 217.227Z" fill="white"/>
<path fill-rule="evenodd" clip-rule="evenodd" d="M89 56C99.4934 56 108 47.4934 108 37C108 26.5066 99.4934 18 89 18C78.5066 18 70 26.5066 70 37C70 47.4934 78.5066 56 89 56Z" fill="#2BE080"/>
<path d="M84.8072 39.3303C85.491 39.3303 86.2108 39.6239 87.0026 40.2477C87.9743 41.0183 88.6221 41.3853 88.982 41.3853C89.5219 41.3853 89.7738 41.0917 89.7738 40.5413C89.7738 40.2477 89.6298 39.9908 89.3059 39.7706C89.126 39.6606 88.2262 39.2936 86.5347 38.7064C83.7995 37.7156 82.4319 35.9174 82.4319 33.2385C82.4319 31.2202 83.1517 29.6422 84.5913 28.5046C85.8869 27.5138 87.4344 27 89.3059 27C90.9254 27 92.329 27.4037 93.5167 28.1743C94.7044 28.945 95.3162 29.9725 95.3162 31.2202C95.3162 31.9541 95.1003 32.578 94.6324 33.0917C94.1645 33.6055 93.5887 33.8257 92.8689 33.8257C92.1131 33.8257 91.2853 33.4587 90.3496 32.7248C89.7738 32.2844 89.3419 32.0275 89.054 32.0275C88.5501 32.0275 88.2982 32.2844 88.2982 32.7615C88.2982 33.2385 88.91 33.6789 90.1697 34.0459C91.8972 34.5963 93.1928 35.2569 94.1285 36.0642C95.3882 37.1284 96 38.5963 96 40.5046C96 42.5963 95.3162 44.211 93.9126 45.3853C92.617 46.4862 90.9254 47 88.838 47C86.7506 47 85.0231 46.4495 83.6555 45.3119C82.5758 44.3945 82 43.367 82 42.156C82 41.3486 82.2519 40.6881 82.7918 40.1376C83.3676 39.6239 84.0154 39.3303 84.8072 39.3303Z" fill="white"/>
</svg>
